<svg xmlns="http://www.w3.org/2000/svg" xmlns:xlink="http://www.w3.org/1999/xlink" width="1920" zoomAndPan="magnify" viewBox="0 0 1440 809.999993" height="1080" preserveAspectRatio="xMidYMid meet" version="1.0"><defs><g/><clipPath id="5d38c1baa1"><path d="M 620.507812 264.390625 L 819.257812 264.390625 L 819.257812 421.140625 L 620.507812 421.140625 Z M 620.507812 264.390625 " clip-rule="nonzero"/></clipPath><clipPath id="5e965e4510"><path d="M 588 221.242188 L 851.992188 221.242188 L 851.992188 485.242188 L 588 485.242188 Z M 588 221.242188 " clip-rule="nonzero"/></clipPath></defs><rect x="-144" width="1728" fill="#ffffff" y="-80.999999" height="971.999992" fill-opacity="1"/><rect x="-144" width="1728" fill="#ffffff" y="-80.999999" height="971.999992" fill-opacity="1"/><g clip-path="url(#5d38c1baa1)"><path fill="#000000" d="M 809.304688 290.890625 L 767.652344 290.890625 L 766.242188 280.921875 L 765.164062 274.203125 C 764.726562 271.496094 763.296875 269.253906 761.050781 267.378906 C 758.75 265.460938 756.289062 264.457031 753.585938 264.457031 L 685.859375 264.457031 C 683.152344 264.457031 680.664062 265.429688 678.390625 267.378906 C 676.121094 269.328125 674.914062 271.617188 674.496094 274.203125 L 673.414062 280.921875 L 671.898438 290.890625 L 630.460938 290.890625 C 624.941406 290.890625 620.507812 295.332031 620.507812 300.640625 L 620.507812 411.144531 C 620.507812 416.667969 624.941406 421.109375 630.460938 421.109375 L 809.300781 421.109375 C 814.820312 421.109375 819.253906 416.667969 819.253906 411.144531 L 819.253906 300.640625 C 819.253906 295.332031 814.820312 290.890625 809.300781 290.890625 Z M 807.25 409.085938 L 632.410156 409.085938 L 632.410156 302.808594 L 671.902344 302.808594 C 677.851562 302.808594 682.988281 298.375 683.800781 292.625 L 685.207031 282.660156 L 686.289062 276.484375 L 753.367188 276.484375 L 754.34375 282.660156 L 755.855469 292.625 C 756.730469 298.363281 761.914062 302.808594 767.652344 302.808594 L 807.25 302.808594 Z M 807.25 409.085938 " fill-opacity="1" fill-rule="nonzero"/></g><path fill="#000000" d="M 787.992188 331.082031 C 793.183594 331.082031 797.511719 326.644531 797.511719 321.441406 C 797.511719 316.132812 793.292969 311.691406 787.992188 311.691406 C 782.6875 311.691406 778.46875 316.132812 778.46875 321.441406 C 778.46875 326.644531 782.796875 331.082031 787.992188 331.082031 Z M 787.992188 331.082031 " fill-opacity="1" fill-rule="nonzero"/><path fill="#000000" d="M 719.71875 305.949219 C 707.496094 305.949219 696.894531 310.386719 688.128906 319.164062 C 679.367188 327.941406 674.929688 338.558594 674.929688 350.800781 C 674.929688 363.039062 679.367188 373.660156 688.128906 382.433594 C 696.894531 391.210938 707.496094 395.359375 719.71875 395.542969 C 743.957031 395.902344 764.796875 374.851562 764.511719 350.800781 C 764.363281 338.449219 760.074219 327.941406 751.3125 319.164062 C 742.546875 310.386719 732.054688 305.949219 719.71875 305.949219 Z M 742.875 374.09375 C 736.492188 380.484375 728.808594 383.625 719.71875 383.625 C 710.742188 383.625 703.058594 380.484375 696.675781 374.09375 C 690.292969 367.699219 687.15625 359.898438 687.15625 350.800781 C 687.15625 341.808594 690.292969 334.007812 696.675781 327.613281 C 703.058594 321.222656 710.742188 317.972656 719.71875 317.972656 C 728.808594 317.972656 736.492188 321.222656 742.875 327.613281 C 749.257812 334.007812 752.503906 341.808594 752.503906 350.800781 C 752.503906 359.898438 749.257812 367.699219 742.875 374.09375 Z M 742.875 374.09375 " fill-opacity="1" fill-rule="nonzero"/><g clip-path="url(#5e965e4510)"><path fill="#ff3131" d="M 720.210938 221.414062 C 647.402344 221.414062 588.164062 280.648438 588.164062 353.460938 C 588.164062 426.269531 647.398438 485.503906 720.210938 485.503906 C 793.019531 485.503906 852.253906 426.269531 852.253906 353.460938 C 852.253906 280.648438 793.015625 221.414062 720.210938 221.414062 Z M 600.835938 353.460938 C 600.835938 287.636719 654.386719 234.085938 720.210938 234.085938 C 752.226562 234.085938 781.320312 246.78125 802.777344 267.375 L 634.148438 436.054688 C 613.542969 414.597656 600.835938 385.492188 600.835938 353.460938 Z M 720.210938 472.832031 C 691.125 472.832031 664.449219 462.363281 643.722656 445.019531 L 811.742188 276.945312 C 829.105469 297.679688 839.582031 324.367188 839.582031 353.460938 C 839.582031 419.28125 786.03125 472.832031 720.210938 472.832031 Z M 720.210938 472.832031 " fill-opacity="1" fill-rule="nonzero"/></g><g fill="#000000" fill-opacity="1"><g transform="translate(669.506229, 552.733168)"><g><path d="M 25.21875 0 L 18.1875 0 L 18.1875 -8.078125 L 1.265625 -8.078125 L 1.265625 -13.984375 L 15.8125 -37.125 L 25.21875 -37.125 L 25.21875 -13.984375 L 30.921875 -13.984375 L 30.921875 -8.078125 L 25.21875 -8.078125 Z M 8.78125 -14.53125 L 9.015625 -13.984375 L 18.1875 -13.984375 L 18.1875 -28.359375 L 17.59375 -28.46875 Z M 8.78125 -14.53125 "/></g></g></g><g fill="#000000" fill-opacity="1"><g transform="translate(701.851453, 552.733168)"><g><path d="M 18.125 0.53125 C 15.09375 0.53125 12.457031 -0.140625 10.21875 -1.484375 C 7.976562 -2.828125 6.234375 -4.921875 4.984375 -7.765625 C 3.742188 -10.609375 3.125 -14.207031 3.125 -18.5625 C 3.125 -22.914062 3.742188 -26.515625 4.984375 -29.359375 C 6.234375 -32.203125 7.976562 -34.296875 10.21875 -35.640625 C 12.457031 -36.984375 15.09375 -37.65625 18.125 -37.65625 C 21.175781 -37.65625 23.820312 -36.984375 26.0625 -35.640625 C 28.300781 -34.296875 30.039062 -32.203125 31.28125 -29.359375 C 32.53125 -26.515625 33.15625 -22.914062 33.15625 -18.5625 C 33.15625 -14.207031 32.53125 -10.609375 31.28125 -7.765625 C 30.039062 -4.921875 28.300781 -2.828125 26.0625 -1.484375 C 23.820312 -0.140625 21.175781 0.53125 18.125 0.53125 Z M 18.125 -5.6875 C 19.789062 -5.6875 21.179688 -6.085938 22.296875 -6.890625 C 23.410156 -7.691406 24.265625 -9.039062 24.859375 -10.9375 C 25.460938 -12.832031 25.765625 -15.375 25.765625 -18.5625 C 25.765625 -21.738281 25.460938 -24.273438 24.859375 -26.171875 C 24.265625 -28.066406 23.410156 -29.414062 22.296875 -30.21875 C 21.179688 -31.03125 19.789062 -31.4375 18.125 -31.4375 C 16.46875 -31.4375 15.082031 -31.03125 13.96875 -30.21875 C 12.851562 -29.414062 11.992188 -28.066406 11.390625 -26.171875 C 10.785156 -24.273438 10.484375 -21.738281 10.484375 -18.5625 C 10.484375 -15.375 10.785156 -12.832031 11.390625 -10.9375 C 11.992188 -9.039062 12.851562 -7.691406 13.96875 -6.890625 C 15.082031 -6.085938 16.46875 -5.6875 18.125 -5.6875 Z M 18.125 -5.6875 "/></g></g></g><g fill="#000000" fill-opacity="1"><g transform="translate(738.131935, 552.733168)"><g><path d="M 25.21875 0 L 18.1875 0 L 18.1875 -8.078125 L 1.265625 -8.078125 L 1.265625 -13.984375 L 15.8125 -37.125 L 25.21875 -37.125 L 25.21875 -13.984375 L 30.921875 -13.984375 L 30.921875 -8.078125 L 25.21875 -8.078125 Z M 8.78125 -14.53125 L 9.015625 -13.984375 L 18.1875 -13.984375 L 18.1875 -28.359375 L 17.59375 -28.46875 Z M 8.78125 -14.53125 "/></g></g></g><g fill="#000000" fill-opacity="1"><g transform="translate(555.361689, 598.908158)"><g><path d="M 8.65625 0 L 3.4375 0 L 3.4375 -26.40625 L 8.65625 -26.40625 Z M 8.65625 0 "/></g></g></g><g fill="#000000" fill-opacity="1"><g transform="translate(567.464903, 598.908158)"><g><path d="M 2.875 0 L 2.875 -19.921875 L 7.671875 -19.921875 L 7.671875 -17.25 L 8.0625 -17.1875 C 8.707031 -18.257812 9.46875 -19.046875 10.34375 -19.546875 C 11.21875 -20.054688 12.332031 -20.3125 13.6875 -20.3125 C 15.195312 -20.3125 16.410156 -20.007812 17.328125 -19.40625 C 18.242188 -18.8125 18.910156 -17.941406 19.328125 -16.796875 L 19.703125 -16.796875 C 20.316406 -17.992188 21.109375 -18.878906 22.078125 -19.453125 C 23.054688 -20.023438 24.265625 -20.3125 25.703125 -20.3125 C 29.835938 -20.3125 31.90625 -18.007812 31.90625 -13.40625 L 31.90625 0 L 26.90625 0 L 26.90625 -12.765625 C 26.90625 -13.941406 26.675781 -14.785156 26.21875 -15.296875 C 25.757812 -15.816406 25.023438 -16.078125 24.015625 -16.078125 C 21.265625 -16.078125 19.890625 -14.238281 19.890625 -10.5625 L 19.890625 0 L 14.890625 0 L 14.890625 -12.765625 C 14.890625 -13.941406 14.65625 -14.785156 14.1875 -15.296875 C 13.726562 -15.816406 12.992188 -16.078125 11.984375 -16.078125 C 10.691406 -16.078125 9.679688 -15.644531 8.953125 -14.78125 C 8.234375 -13.925781 7.875 -12.554688 7.875 -10.671875 L 7.875 0 Z M 2.875 0 "/></g></g></g><g fill="#000000" fill-opacity="1"><g transform="translate(601.931965, 598.908158)"><g><path d="M 7.765625 0.375 C 6.492188 0.375 5.382812 0.140625 4.4375 -0.328125 C 3.5 -0.796875 2.773438 -1.484375 2.265625 -2.390625 C 1.765625 -3.304688 1.515625 -4.398438 1.515625 -5.671875 C 1.515625 -6.847656 1.765625 -7.835938 2.265625 -8.640625 C 2.773438 -9.441406 3.5625 -10.097656 4.625 -10.609375 C 5.6875 -11.117188 7.070312 -11.515625 8.78125 -11.796875 C 9.96875 -11.992188 10.875 -12.203125 11.5 -12.421875 C 12.125 -12.648438 12.539062 -12.910156 12.75 -13.203125 C 12.96875 -13.492188 13.078125 -13.863281 13.078125 -14.3125 C 13.078125 -14.945312 12.851562 -15.429688 12.40625 -15.765625 C 11.96875 -16.109375 11.226562 -16.28125 10.1875 -16.28125 C 9.082031 -16.28125 8.03125 -16.03125 7.03125 -15.53125 C 6.03125 -15.039062 5.160156 -14.394531 4.421875 -13.59375 L 4.0625 -13.59375 L 1.96875 -16.75 C 2.976562 -17.863281 4.210938 -18.734375 5.671875 -19.359375 C 7.128906 -19.992188 8.71875 -20.3125 10.4375 -20.3125 C 13.082031 -20.3125 14.992188 -19.75 16.171875 -18.625 C 17.347656 -17.507812 17.9375 -15.921875 17.9375 -13.859375 L 17.9375 -5.203125 C 17.9375 -4.304688 18.328125 -3.859375 19.109375 -3.859375 C 19.410156 -3.859375 19.707031 -3.914062 20 -4.03125 L 20.25 -3.953125 L 20.609375 -0.46875 C 20.335938 -0.289062 19.953125 -0.144531 19.453125 -0.03125 C 18.960938 0.0820312 18.421875 0.140625 17.828125 0.140625 C 16.640625 0.140625 15.707031 -0.0859375 15.03125 -0.546875 C 14.363281 -1.003906 13.890625 -1.71875 13.609375 -2.6875 L 13.21875 -2.734375 C 12.25 -0.660156 10.429688 0.375 7.765625 0.375 Z M 9.359375 -3.359375 C 10.515625 -3.359375 11.4375 -3.742188 12.125 -4.515625 C 12.820312 -5.296875 13.171875 -6.378906 13.171875 -7.765625 L 13.171875 -9.796875 L 12.828125 -9.859375 C 12.523438 -9.617188 12.128906 -9.414062 11.640625 -9.25 C 11.148438 -9.09375 10.453125 -8.9375 9.546875 -8.78125 C 8.453125 -8.601562 7.664062 -8.289062 7.1875 -7.84375 C 6.71875 -7.40625 6.484375 -6.785156 6.484375 -5.984375 C 6.484375 -5.128906 6.734375 -4.476562 7.234375 -4.03125 C 7.742188 -3.582031 8.453125 -3.359375 9.359375 -3.359375 Z M 9.359375 -3.359375 "/></g></g></g><g fill="#000000" fill-opacity="1"><g transform="translate(622.940982, 598.908158)"><g><path d="M 10.328125 8.453125 C 7.046875 8.453125 4.617188 7.96875 3.046875 7 C 1.484375 6.039062 0.703125 4.703125 0.703125 2.984375 C 0.703125 1.929688 1.035156 1.070312 1.703125 0.40625 C 2.367188 -0.257812 3.332031 -0.707031 4.59375 -0.9375 L 4.59375 -1.3125 C 3.914062 -1.726562 3.425781 -2.1875 3.125 -2.6875 C 2.832031 -3.1875 2.6875 -3.765625 2.6875 -4.421875 C 2.6875 -6.023438 3.726562 -7.101562 5.8125 -7.65625 L 5.8125 -8.046875 C 4.738281 -8.660156 3.929688 -9.421875 3.390625 -10.328125 C 2.847656 -11.234375 2.578125 -12.332031 2.578125 -13.625 C 2.578125 -14.945312 2.878906 -16.109375 3.484375 -17.109375 C 4.097656 -18.117188 4.992188 -18.90625 6.171875 -19.46875 C 7.347656 -20.03125 8.753906 -20.3125 10.390625 -20.3125 C 12.046875 -20.3125 13.367188 -20.019531 14.359375 -19.4375 C 14.972656 -20.332031 15.328125 -21.363281 15.421875 -22.53125 L 15.8125 -22.765625 L 19.40625 -21.875 C 19.289062 -20.925781 19.007812 -20.128906 18.5625 -19.484375 C 18.125 -18.835938 17.4375 -18.265625 16.5 -17.765625 L 16.5 -17.359375 C 17.613281 -16.367188 18.171875 -14.988281 18.171875 -13.21875 C 18.171875 -11.988281 17.863281 -10.882812 17.25 -9.90625 C 16.632812 -8.9375 15.738281 -8.164062 14.5625 -7.59375 C 13.394531 -7.03125 12.003906 -6.75 10.390625 -6.75 L 9.625 -6.78125 C 9.144531 -6.800781 8.8125 -6.8125 8.625 -6.8125 C 8.164062 -6.8125 7.804688 -6.6875 7.546875 -6.4375 C 7.285156 -6.195312 7.15625 -5.882812 7.15625 -5.5 C 7.15625 -5.070312 7.320312 -4.738281 7.65625 -4.5 C 8 -4.269531 8.492188 -4.144531 9.140625 -4.125 L 13.609375 -3.953125 C 18.015625 -3.828125 20.21875 -1.929688 20.21875 1.734375 C 20.21875 3.023438 19.890625 4.171875 19.234375 5.171875 C 18.578125 6.179688 17.515625 6.976562 16.046875 7.5625 C 14.578125 8.15625 12.671875 8.453125 10.328125 8.453125 Z M 10.390625 -10.265625 C 11.347656 -10.265625 12.097656 -10.546875 12.640625 -11.109375 C 13.179688 -11.671875 13.453125 -12.476562 13.453125 -13.53125 C 13.453125 -14.582031 13.179688 -15.382812 12.640625 -15.9375 C 12.097656 -16.5 11.347656 -16.78125 10.390625 -16.78125 C 9.410156 -16.78125 8.65625 -16.5 8.125 -15.9375 C 7.59375 -15.382812 7.328125 -14.582031 7.328125 -13.53125 C 7.328125 -12.46875 7.59375 -11.65625 8.125 -11.09375 C 8.65625 -10.539062 9.410156 -10.265625 10.390625 -10.265625 Z M 10.328125 4.828125 C 12.046875 4.828125 13.289062 4.582031 14.0625 4.09375 C 14.84375 3.613281 15.234375 2.988281 15.234375 2.21875 C 15.234375 1.59375 15.03125 1.128906 14.625 0.828125 C 14.226562 0.535156 13.597656 0.378906 12.734375 0.359375 L 8.796875 0.1875 C 8.660156 0.1875 8.535156 0.175781 8.421875 0.15625 C 8.304688 0.144531 8.195312 0.140625 8.09375 0.140625 C 7.25 0.140625 6.609375 0.320312 6.171875 0.6875 C 5.734375 1.050781 5.515625 1.550781 5.515625 2.1875 C 5.515625 3.03125 5.914062 3.679688 6.71875 4.140625 C 7.53125 4.597656 8.734375 4.828125 10.328125 4.828125 Z M 10.328125 4.828125 "/></g></g></g><g fill="#000000" fill-opacity="1"><g transform="translate(643.660967, 598.908158)"><g><path d="M 19.6875 -8.828125 L 6.890625 -8.828125 C 7.023438 -7.097656 7.515625 -5.835938 8.359375 -5.046875 C 9.203125 -4.253906 10.351562 -3.859375 11.8125 -3.859375 C 12.957031 -3.859375 13.882812 -4.070312 14.59375 -4.5 C 15.300781 -4.9375 15.875 -5.585938 16.3125 -6.453125 L 16.6875 -6.453125 L 20.015625 -4.3125 C 19.367188 -2.914062 18.390625 -1.785156 17.078125 -0.921875 C 15.765625 -0.0546875 14.007812 0.375 11.8125 0.375 C 9.75 0.375 7.96875 -0.015625 6.46875 -0.796875 C 4.976562 -1.578125 3.820312 -2.738281 3 -4.28125 C 2.1875 -5.832031 1.78125 -7.722656 1.78125 -9.953125 C 1.78125 -12.210938 2.207031 -14.117188 3.0625 -15.671875 C 3.925781 -17.234375 5.082031 -18.394531 6.53125 -19.15625 C 7.988281 -19.925781 9.628906 -20.3125 11.453125 -20.3125 C 14.273438 -20.3125 16.4375 -19.5625 17.9375 -18.0625 C 19.4375 -16.570312 20.1875 -14.378906 20.1875 -11.484375 C 20.1875 -10.441406 20.148438 -9.628906 20.078125 -9.046875 Z M 15.390625 -12.0625 C 15.347656 -13.582031 14.992188 -14.6875 14.328125 -15.375 C 13.671875 -16.070312 12.710938 -16.421875 11.453125 -16.421875 C 8.921875 -16.421875 7.429688 -14.96875 6.984375 -12.0625 Z M 15.390625 -12.0625 "/></g></g></g><g fill="#000000" fill-opacity="1"><g transform="translate(665.320306, 598.908158)"><g/></g></g><g fill="#000000" fill-opacity="1"><g transform="translate(674.045464, 598.908158)"><g><path d="M 2.875 0 L 2.875 -19.921875 L 7.671875 -19.921875 L 7.671875 -17 L 8.0625 -16.90625 C 9.300781 -19.175781 11.3125 -20.3125 14.09375 -20.3125 C 16.394531 -20.3125 18.082031 -19.679688 19.15625 -18.421875 C 20.238281 -17.171875 20.78125 -15.347656 20.78125 -12.953125 L 20.78125 0 L 15.765625 0 L 15.765625 -12.34375 C 15.765625 -13.664062 15.5 -14.617188 14.96875 -15.203125 C 14.445312 -15.785156 13.601562 -16.078125 12.4375 -16.078125 C 11 -16.078125 9.878906 -15.613281 9.078125 -14.6875 C 8.273438 -13.757812 7.875 -12.300781 7.875 -10.3125 L 7.875 0 Z M 2.875 0 "/></g></g></g><g fill="#000000" fill-opacity="1"><g transform="translate(697.384795, 598.908158)"><g><path d="M 11.578125 0.375 C 9.628906 0.375 7.914062 -0.0234375 6.4375 -0.828125 C 4.96875 -1.628906 3.820312 -2.800781 3 -4.34375 C 2.1875 -5.894531 1.78125 -7.765625 1.78125 -9.953125 C 1.78125 -12.148438 2.1875 -14.023438 3 -15.578125 C 3.820312 -17.128906 4.96875 -18.304688 6.4375 -19.109375 C 7.914062 -19.910156 9.628906 -20.3125 11.578125 -20.3125 C 13.523438 -20.3125 15.238281 -19.910156 16.71875 -19.109375 C 18.195312 -18.304688 19.34375 -17.128906 20.15625 -15.578125 C 20.976562 -14.023438 21.390625 -12.148438 21.390625 -9.953125 C 21.390625 -7.765625 20.976562 -5.894531 20.15625 -4.34375 C 19.34375 -2.800781 18.195312 -1.628906 16.71875 -0.828125 C 15.238281 -0.0234375 13.523438 0.375 11.578125 0.375 Z M 11.578125 -3.859375 C 14.671875 -3.859375 16.21875 -5.890625 16.21875 -9.953125 C 16.21875 -12.054688 15.820312 -13.597656 15.03125 -14.578125 C 14.238281 -15.566406 13.085938 -16.0625 11.578125 -16.0625 C 8.484375 -16.0625 6.9375 -14.023438 6.9375 -9.953125 C 6.9375 -5.890625 8.484375 -3.859375 11.578125 -3.859375 Z M 11.578125 -3.859375 "/></g></g></g><g fill="#000000" fill-opacity="1"><g transform="translate(720.543481, 598.908158)"><g><path d="M 13.75 -4.75 L 15.046875 -1.046875 C 14.503906 -0.597656 13.820312 -0.25 13 0 C 12.1875 0.25 11.257812 0.375 10.21875 0.375 C 8.0625 0.375 6.421875 -0.207031 5.296875 -1.375 C 4.179688 -2.550781 3.625 -4.257812 3.625 -6.5 L 3.625 -15.96875 L 0.59375 -15.96875 L 0.59375 -19.953125 L 3.625 -19.953125 L 3.625 -23.828125 L 8.640625 -24.640625 L 8.640625 -19.953125 L 14.296875 -19.953125 L 14.296875 -15.96875 L 8.640625 -15.96875 L 8.640625 -6.859375 C 8.640625 -5.878906 8.84375 -5.160156 9.25 -4.703125 C 9.65625 -4.253906 10.25 -4.03125 11.03125 -4.03125 C 11.925781 -4.03125 12.707031 -4.269531 13.375 -4.75 Z M 13.75 -4.75 "/></g></g></g><g fill="#000000" fill-opacity="1"><g transform="translate(736.024762, 598.908158)"><g/></g></g><g fill="#000000" fill-opacity="1"><g transform="translate(744.74992, 598.908158)"><g><path d="M 3.484375 0 L 3.484375 -15.96875 L 0.671875 -15.96875 L 0.671875 -19.953125 L 3.484375 -19.953125 C 3.285156 -20.785156 3.1875 -21.570312 3.1875 -22.3125 C 3.1875 -23.570312 3.472656 -24.648438 4.046875 -25.546875 C 4.628906 -26.453125 5.460938 -27.140625 6.546875 -27.609375 C 7.628906 -28.078125 8.914062 -28.3125 10.40625 -28.3125 C 12.613281 -28.3125 14.257812 -27.929688 15.34375 -27.171875 L 14.171875 -23.484375 L 13.78125 -23.421875 C 13.039062 -23.941406 12.082031 -24.203125 10.90625 -24.203125 C 10.007812 -24.203125 9.332031 -23.984375 8.875 -23.546875 C 8.425781 -23.109375 8.203125 -22.507812 8.203125 -21.75 C 8.203125 -21.425781 8.222656 -21.128906 8.265625 -20.859375 C 8.304688 -20.585938 8.378906 -20.285156 8.484375 -19.953125 L 14.1875 -19.953125 L 14.1875 -15.96875 L 8.484375 -15.96875 L 8.484375 0 Z M 3.484375 0 "/></g></g></g><g fill="#000000" fill-opacity="1"><g transform="translate(759.129272, 598.908158)"><g><path d="M 11.578125 0.375 C 9.628906 0.375 7.914062 -0.0234375 6.4375 -0.828125 C 4.96875 -1.628906 3.820312 -2.800781 3 -4.34375 C 2.1875 -5.894531 1.78125 -7.765625 1.78125 -9.953125 C 1.78125 -12.148438 2.1875 -14.023438 3 -15.578125 C 3.820312 -17.128906 4.96875 -18.304688 6.4375 -19.109375 C 7.914062 -19.910156 9.628906 -20.3125 11.578125 -20.3125 C 13.523438 -20.3125 15.238281 -19.910156 16.71875 -19.109375 C 18.195312 -18.304688 19.34375 -17.128906 20.15625 -15.578125 C 20.976562 -14.023438 21.390625 -12.148438 21.390625 -9.953125 C 21.390625 -7.765625 20.976562 -5.894531 20.15625 -4.34375 C 19.34375 -2.800781 18.195312 -1.628906 16.71875 -0.828125 C 15.238281 -0.0234375 13.523438 0.375 11.578125 0.375 Z M 11.578125 -3.859375 C 14.671875 -3.859375 16.21875 -5.890625 16.21875 -9.953125 C 16.21875 -12.054688 15.820312 -13.597656 15.03125 -14.578125 C 14.238281 -15.566406 13.085938 -16.0625 11.578125 -16.0625 C 8.484375 -16.0625 6.9375 -14.023438 6.9375 -9.953125 C 6.9375 -5.890625 8.484375 -3.859375 11.578125 -3.859375 Z M 11.578125 -3.859375 "/></g></g></g><g fill="#000000" fill-opacity="1"><g transform="translate(782.287947, 598.908158)"><g><path d="M 9.125 0.375 C 6.882812 0.375 5.226562 -0.234375 4.15625 -1.453125 C 3.09375 -2.671875 2.5625 -4.425781 2.5625 -6.71875 L 2.5625 -19.921875 L 7.5625 -19.921875 L 7.5625 -7.359375 C 7.5625 -6.140625 7.820312 -5.25 8.34375 -4.6875 C 8.875 -4.125 9.6875 -3.84375 10.78125 -3.84375 C 12.164062 -3.84375 13.242188 -4.296875 14.015625 -5.203125 C 14.785156 -6.117188 15.171875 -7.550781 15.171875 -9.5 L 15.171875 -19.921875 L 20.1875 -19.921875 L 20.1875 0 L 15.375 0 L 15.375 -2.921875 L 15 -3.015625 C 14.351562 -1.867188 13.570312 -1.015625 12.65625 -0.453125 C 11.738281 0.0976562 10.5625 0.375 9.125 0.375 Z M 9.125 0.375 "/></g></g></g><g fill="#000000" fill-opacity="1"><g transform="translate(805.338246, 598.908158)"><g><path d="M 2.875 0 L 2.875 -19.921875 L 7.671875 -19.921875 L 7.671875 -17 L 8.0625 -16.90625 C 9.300781 -19.175781 11.3125 -20.3125 14.09375 -20.3125 C 16.394531 -20.3125 18.082031 -19.679688 19.15625 -18.421875 C 20.238281 -17.171875 20.78125 -15.347656 20.78125 -12.953125 L 20.78125 0 L 15.765625 0 L 15.765625 -12.34375 C 15.765625 -13.664062 15.5 -14.617188 14.96875 -15.203125 C 14.445312 -15.785156 13.601562 -16.078125 12.4375 -16.078125 C 11 -16.078125 9.878906 -15.613281 9.078125 -14.6875 C 8.273438 -13.757812 7.875 -12.300781 7.875 -10.3125 L 7.875 0 Z M 2.875 0 "/></g></g></g><g fill="#000000" fill-opacity="1"><g transform="translate(828.677577, 598.908158)"><g><path d="M 9.84375 0.375 C 8.269531 0.375 6.875 -0.00390625 5.65625 -0.765625 C 4.445312 -1.535156 3.5 -2.691406 2.8125 -4.234375 C 2.125 -5.785156 1.78125 -7.691406 1.78125 -9.953125 C 1.78125 -12.234375 2.132812 -14.144531 2.84375 -15.6875 C 3.550781 -17.238281 4.523438 -18.394531 5.765625 -19.15625 C 7.015625 -19.925781 8.457031 -20.3125 10.09375 -20.3125 C 11.332031 -20.3125 12.40625 -20.097656 13.3125 -19.671875 C 14.226562 -19.242188 15 -18.578125 15.625 -17.671875 L 16 -17.765625 L 16 -27.9375 L 21.015625 -27.9375 L 21.015625 0 L 16 0 L 16 -2.578125 L 15.625 -2.65625 C 15.070312 -1.71875 14.3125 -0.976562 13.34375 -0.4375 C 12.382812 0.101562 11.21875 0.375 9.84375 0.375 Z M 11.46875 -3.859375 C 12.882812 -3.859375 14 -4.363281 14.8125 -5.375 C 15.632812 -6.382812 16.046875 -7.910156 16.046875 -9.953125 C 16.046875 -12.003906 15.632812 -13.535156 14.8125 -14.546875 C 14 -15.554688 12.882812 -16.0625 11.46875 -16.0625 C 10 -16.0625 8.875 -15.566406 8.09375 -14.578125 C 7.320312 -13.597656 6.9375 -12.054688 6.9375 -9.953125 C 6.9375 -7.859375 7.320312 -6.316406 8.09375 -5.328125 C 8.875 -4.347656 10 -3.859375 11.46875 -3.859375 Z M 11.46875 -3.859375 "/></g></g></g><g fill="#000000" fill-opacity="1"><g transform="translate(852.558832, 598.908158)"><g/></g></g><g fill="#000000" fill-opacity="1"><g transform="translate(861.283991, 598.908158)"><g><path d="M 5.09375 0.15625 C 4.457031 0.15625 3.894531 0.03125 3.40625 -0.21875 C 2.914062 -0.476562 2.539062 -0.835938 2.28125 -1.296875 C 2.019531 -1.753906 1.890625 -2.273438 1.890625 -2.859375 C 1.890625 -3.429688 2.019531 -3.945312 2.28125 -4.40625 C 2.539062 -4.863281 2.914062 -5.222656 3.40625 -5.484375 C 3.894531 -5.753906 4.457031 -5.890625 5.09375 -5.890625 C 5.75 -5.890625 6.316406 -5.757812 6.796875 -5.5 C 7.285156 -5.238281 7.660156 -4.878906 7.921875 -4.421875 C 8.179688 -3.960938 8.3125 -3.445312 8.3125 -2.875 C 8.3125 -1.988281 8.019531 -1.257812 7.4375 -0.6875 C 6.851562 -0.125 6.070312 0.15625 5.09375 0.15625 Z M 5.09375 -14.078125 C 4.457031 -14.078125 3.894531 -14.203125 3.40625 -14.453125 C 2.914062 -14.710938 2.539062 -15.070312 2.28125 -15.53125 C 2.019531 -15.988281 1.890625 -16.507812 1.890625 -17.09375 C 1.890625 -17.664062 2.019531 -18.179688 2.28125 -18.640625 C 2.539062 -19.097656 2.914062 -19.457031 3.40625 -19.71875 C 3.894531 -19.988281 4.457031 -20.125 5.09375 -20.125 C 5.75 -20.125 6.316406 -19.992188 6.796875 -19.734375 C 7.285156 -19.472656 7.660156 -19.113281 7.921875 -18.65625 C 8.179688 -18.195312 8.3125 -17.679688 8.3125 -17.109375 C 8.3125 -16.222656 8.019531 -15.492188 7.4375 -14.921875 C 6.851562 -14.359375 6.070312 -14.078125 5.09375 -14.078125 Z M 5.09375 -14.078125 "/></g></g></g><g fill="#000000" fill-opacity="1"><g transform="translate(871.490426, 598.908158)"><g><path d="M 8.078125 3.78125 C 6.441406 1.75 5.125 -0.507812 4.125 -3 C 3.125 -5.488281 2.625 -8.507812 2.625 -12.0625 C 2.625 -15.632812 3.125 -18.664062 4.125 -21.15625 C 5.125 -23.644531 6.441406 -25.90625 8.078125 -27.9375 L 11.921875 -27.9375 L 12 -27.546875 C 10.695312 -25.316406 9.6875 -23.003906 8.96875 -20.609375 C 8.257812 -18.210938 7.90625 -15.363281 7.90625 -12.0625 C 7.90625 -8.78125 8.257812 -5.941406 8.96875 -3.546875 C 9.6875 -1.148438 10.695312 1.160156 12 3.390625 L 11.921875 3.78125 Z M 8.078125 3.78125 "/></g></g></g></svg>